<svg width="157" height="13" viewBox="0 0 157 13" fill="none" xmlns="http://www.w3.org/2000/svg">
<path d="M6.40359 12.3732C5.49693 12.3732 4.65959 12.2345 3.89159 11.9572C3.13426 11.6692 2.47293 11.2638 1.90759 10.7412C1.35293 10.2185 0.920927 9.59982 0.611594 8.88516C0.30226 8.17049 0.147594 7.38116 0.147594 6.51716C0.147594 5.65316 0.30226 4.86382 0.611594 4.14916C0.920927 3.43449 1.35826 2.81582 1.92359 2.29316C2.48893 1.77049 3.15559 1.37049 3.92359 1.09316C4.70226 0.805157 5.55559 0.661157 6.48359 0.661157C7.59293 0.661157 8.57959 0.847823 9.44359 1.22116C10.3183 1.59449 11.0383 2.12782 11.6036 2.82116L9.18759 4.94916C8.83559 4.54382 8.45159 4.23982 8.03559 4.03716C7.63026 3.82382 7.17693 3.71716 6.67559 3.71716C6.25959 3.71716 5.88093 3.78116 5.53959 3.90916C5.20893 4.03716 4.92626 4.22382 4.69159 4.46916C4.45693 4.71449 4.27559 5.00782 4.14759 5.34916C4.01959 5.69049 3.95559 6.07982 3.95559 6.51716C3.95559 6.93316 4.01959 7.31716 4.14759 7.66916C4.27559 8.01049 4.45693 8.30382 4.69159 8.54916C4.92626 8.79449 5.20359 8.98649 5.52359 9.12516C5.85426 9.25316 6.22226 9.31716 6.62759 9.31716C7.05426 9.31716 7.47026 9.24782 7.87559 9.10916C8.28093 8.95982 8.71293 8.70916 9.17159 8.35716L11.2836 10.9492C10.6009 11.4078 9.82226 11.7598 8.94759 12.0052C8.07293 12.2505 7.22493 12.3732 6.40359 12.3732ZM8.00359 10.4692V6.21316H11.2836V10.9492L8.00359 10.4692ZM13.5325 12.1172V0.917156H18.9245C19.9698 0.917156 20.8711 1.08782 21.6285 1.42916C22.3965 1.77049 22.9885 2.26116 23.4045 2.90116C23.8205 3.53049 24.0285 4.27716 24.0285 5.14116C24.0285 6.00516 23.8205 6.75182 23.4045 7.38116C22.9885 7.99982 22.3965 8.47449 21.6285 8.80516C20.8711 9.13582 19.9698 9.30116 18.9245 9.30116H15.6285L17.3085 7.74916V12.1172H13.5325ZM20.2365 12.1172L17.4845 8.03716H21.4845L24.2685 12.1172H20.2365ZM17.3085 8.16516L15.6285 6.45316H18.6845C19.2071 6.45316 19.5911 6.33582 19.8365 6.10116C20.0925 5.86649 20.2205 5.54649 20.2205 5.14116C20.2205 4.73582 20.0925 4.41582 19.8365 4.18116C19.5911 3.94649 19.2071 3.82916 18.6845 3.82916H15.6285L17.3085 2.11716V8.16516ZM24.8783 12.1172L29.7743 0.917156H33.4863L38.3823 12.1172H34.4783L30.8623 2.70916H32.3343L28.7183 12.1172H24.8783ZM27.7903 10.1652L28.7503 7.44516H33.9023L34.8623 10.1652H27.7903ZM39.625 12.1172V0.917156H42.729L48.425 7.73316H46.985V0.917156H50.665V12.1172H47.561L41.865 5.30116H43.305V12.1172H39.625ZM53.1243 12.1172V0.917156H58.6443C59.8923 0.917156 60.991 1.14649 61.9403 1.60516C62.8897 2.05316 63.631 2.69316 64.1643 3.52516C64.6977 4.35716 64.9643 5.34916 64.9643 6.50116C64.9643 7.66382 64.6977 8.66649 64.1643 9.50916C63.631 10.3412 62.8897 10.9865 61.9403 11.4452C60.991 11.8932 59.8923 12.1172 58.6443 12.1172H53.1243ZM56.9003 9.17316H58.4843C59.0177 9.17316 59.4817 9.07182 59.8763 8.86916C60.2817 8.66649 60.5963 8.36782 60.8203 7.97316C61.0443 7.56782 61.1563 7.07716 61.1563 6.50116C61.1563 5.93582 61.0443 5.45582 60.8203 5.06116C60.5963 4.66649 60.2817 4.36782 59.8763 4.16516C59.4817 3.96249 59.0177 3.86116 58.4843 3.86116H56.9003V9.17316ZM75.252 12.3732C74.3773 12.3732 73.588 12.2345 72.884 11.9572C72.18 11.6692 71.5933 11.2532 71.124 10.7092L73.156 8.30916C73.4546 8.67182 73.748 8.94916 74.036 9.14116C74.324 9.32249 74.6226 9.41316 74.932 9.41316C75.7426 9.41316 76.148 8.94916 76.148 8.02116V3.76516H72.34V0.917156H79.876V7.79716C79.876 9.33316 79.4813 10.4798 78.692 11.2372C77.9026 11.9945 76.756 12.3732 75.252 12.3732ZM80.7971 12.1172L85.6931 0.917156H89.4051L94.3011 12.1172H90.3971L86.7811 2.70916H88.2531L84.6371 12.1172H80.7971ZM83.7091 10.1652L84.6691 7.44516H89.8211L90.7811 10.1652H83.7091ZM101.179 12.3732C100.283 12.3732 99.4515 12.2345 98.6835 11.9572C97.9261 11.6692 97.2648 11.2638 96.6995 10.7412C96.1448 10.2185 95.7128 9.59982 95.4035 8.88516C95.0941 8.17049 94.9395 7.38116 94.9395 6.51716C94.9395 5.65316 95.0941 4.86382 95.4035 4.14916C95.7128 3.43449 96.1448 2.81582 96.6995 2.29316C97.2648 1.77049 97.9261 1.37049 98.6835 1.09316C99.4515 0.805157 100.283 0.661157 101.179 0.661157C102.278 0.661157 103.249 0.853157 104.091 1.23716C104.945 1.62116 105.649 2.17582 106.203 2.90116L103.819 5.02916C103.489 4.61316 103.121 4.29316 102.715 4.06916C102.321 3.83449 101.873 3.71716 101.371 3.71716C100.977 3.71716 100.619 3.78116 100.299 3.90916C99.9795 4.03716 99.7021 4.22382 99.4675 4.46916C99.2435 4.71449 99.0675 5.01316 98.9395 5.36516C98.8115 5.70649 98.7475 6.09049 98.7475 6.51716C98.7475 6.94382 98.8115 7.33316 98.9395 7.68516C99.0675 8.02649 99.2435 8.31982 99.4675 8.56516C99.7021 8.81049 99.9795 8.99716 100.299 9.12516C100.619 9.25316 100.977 9.31716 101.371 9.31716C101.873 9.31716 102.321 9.20516 102.715 8.98116C103.121 8.74649 103.489 8.42116 103.819 8.00516L106.203 10.1332C105.649 10.8478 104.945 11.4025 104.091 11.7972C103.249 12.1812 102.278 12.3732 101.179 12.3732ZM111.31 9.71716L111.102 5.57316L115.326 0.917156H119.438L114.702 6.13316L112.606 8.27716L111.31 9.71716ZM107.934 12.1172V0.917156H111.646V12.1172H107.934ZM115.294 12.1172L111.998 7.76516L114.446 5.17316L119.662 12.1172H115.294ZM120.808 12.1172V0.917156H126.2C127.245 0.917156 128.147 1.08782 128.904 1.42916C129.672 1.77049 130.264 2.26116 130.68 2.90116C131.096 3.53049 131.304 4.27716 131.304 5.14116C131.304 6.00516 131.096 6.75182 130.68 7.38116C130.264 8.01049 129.672 8.50116 128.904 8.85316C128.147 9.19449 127.245 9.36516 126.2 9.36516H122.904L124.584 7.74916V12.1172H120.808ZM124.584 8.16516L122.904 6.45316H125.96C126.483 6.45316 126.867 6.33582 127.112 6.10116C127.368 5.86649 127.496 5.54649 127.496 5.14116C127.496 4.73582 127.368 4.41582 127.112 4.18116C126.867 3.94649 126.483 3.82916 125.96 3.82916H122.904L124.584 2.11716V8.16516ZM139.211 12.3732C138.304 12.3732 137.461 12.2292 136.683 11.9412C135.915 11.6532 135.248 11.2478 134.683 10.7252C134.117 10.1918 133.675 9.56782 133.355 8.85316C133.045 8.13849 132.891 7.35982 132.891 6.51716C132.891 5.66382 133.045 4.88516 133.355 4.18116C133.675 3.46649 134.117 2.84782 134.683 2.32516C135.248 1.79182 135.915 1.38116 136.683 1.09316C137.461 0.805157 138.304 0.661157 139.211 0.661157C140.128 0.661157 140.971 0.805157 141.739 1.09316C142.507 1.38116 143.173 1.79182 143.739 2.32516C144.304 2.84782 144.741 3.46649 145.051 4.18116C145.371 4.88516 145.531 5.66382 145.531 6.51716C145.531 7.35982 145.371 8.13849 145.051 8.85316C144.741 9.56782 144.304 10.1918 143.739 10.7252C143.173 11.2478 142.507 11.6532 141.739 11.9412C140.971 12.2292 140.128 12.3732 139.211 12.3732ZM139.211 9.31716C139.563 9.31716 139.888 9.25316 140.187 9.12516C140.496 8.99716 140.763 8.81582 140.987 8.58116C141.221 8.33582 141.403 8.04249 141.531 7.70116C141.659 7.34916 141.723 6.95449 141.723 6.51716C141.723 6.07982 141.659 5.69049 141.531 5.34916C141.403 4.99716 141.221 4.70382 140.987 4.46916C140.763 4.22382 140.496 4.03716 140.187 3.90916C139.888 3.78116 139.563 3.71716 139.211 3.71716C138.859 3.71716 138.528 3.78116 138.219 3.90916C137.92 4.03716 137.653 4.22382 137.419 4.46916C137.195 4.70382 137.019 4.99716 136.891 5.34916C136.763 5.69049 136.699 6.07982 136.699 6.51716C136.699 6.95449 136.763 7.34916 136.891 7.70116C137.019 8.04249 137.195 8.33582 137.419 8.58116C137.653 8.81582 137.92 8.99716 138.219 9.12516C138.528 9.25316 138.859 9.31716 139.211 9.31716ZM149.817 12.1172V3.84516H146.537V0.917156H156.873V3.84516H153.593V12.1172H149.817Z" fill="url(#paint0_linear_1_81)"/>
<path d="M3.89159 11.9572L3.53615 12.8919L3.54402 12.8948L3.55195 12.8977L3.89159 11.9572ZM1.90759 10.7412L1.22176 11.469L1.22874 11.4754L1.90759 10.7412ZM0.611594 8.88516L-0.306128 9.28238H-0.306128L0.611594 8.88516ZM0.611594 4.14916L-0.306128 3.75193H-0.306128L0.611594 4.14916ZM1.92359 2.29316L1.24474 1.55888H1.24474L1.92359 2.29316ZM3.92359 1.09316L4.26325 2.03374L4.27049 2.03106L3.92359 1.09316ZM9.44359 1.22116L9.04694 2.13913L9.05103 2.14088L9.44359 1.22116ZM11.6036 2.82116L12.2646 3.57157L12.987 2.93529L12.3786 2.18922L11.6036 2.82116ZM9.18759 4.94916L8.43256 5.60484L9.09286 6.36519L9.84856 5.69957L9.18759 4.94916ZM8.03559 4.03716L7.56985 4.92208L7.58363 4.92933L7.59763 4.93615L8.03559 4.03716ZM5.53959 3.90916L5.18845 2.97278L5.1786 2.97659L5.53959 3.90916ZM4.69159 4.46916L5.41424 5.16038L5.41424 5.16038L4.69159 4.46916ZM4.14759 5.34916L5.08392 5.70028L4.14759 5.34916ZM4.14759 7.66916L3.20775 8.01092L3.21126 8.02028L4.14759 7.66916ZM4.69159 8.54916L5.41424 7.85793L5.41424 7.85793L4.69159 8.54916ZM5.52359 9.12516L5.12599 10.0427L5.14415 10.0506L5.1626 10.0577L5.52359 9.12516ZM7.87559 9.10916L8.19928 10.0553L8.21034 10.0515L8.2213 10.0475L7.87559 9.10916ZM9.17159 8.35716L9.94683 7.72548L9.3333 6.97252L8.56278 7.56385L9.17159 8.35716ZM11.2836 10.9492L11.8413 11.7792L12.7515 11.1676L12.0588 10.3175L11.2836 10.9492ZM8.94759 12.0052L9.21766 12.968L8.94759 12.0052ZM8.00359 10.4692H7.00359V11.3335L7.8588 11.4586L8.00359 10.4692ZM8.00359 6.21316V5.21316H7.00359V6.21316H8.00359ZM11.2836 6.21316H12.2836V5.21316H11.2836V6.21316ZM11.2836 10.9492L11.1388 11.9386L12.2836 12.1061V10.9492H11.2836ZM6.40359 11.3732C5.60002 11.3732 4.87897 11.2505 4.23124 11.0166L3.55195 12.8977C4.44022 13.2185 5.39384 13.3732 6.40359 13.3732V11.3732ZM4.24704 11.0225C3.60299 10.7775 3.05293 10.4382 2.58645 10.0069L1.22874 11.4754C1.89292 12.0895 2.66553 12.5608 3.53615 12.8919L4.24704 11.0225ZM2.59339 10.0134C2.1399 9.58604 1.78583 9.08058 1.52932 8.48793L-0.306128 9.28238C0.0560202 10.1191 0.565954 10.8509 1.22179 11.4689L2.59339 10.0134ZM1.52932 8.48793C1.27992 7.91175 1.14759 7.25954 1.14759 6.51716H-0.852406C-0.852406 7.50278 -0.675401 8.42923 -0.306128 9.28238L1.52932 8.48793ZM1.14759 6.51716C1.14759 5.77478 1.27992 5.12257 1.52932 4.54638L-0.306128 3.75193C-0.675401 4.60508 -0.852406 5.53154 -0.852406 6.51716H1.14759ZM1.52932 4.54638C1.78401 3.95796 2.14053 3.45449 2.60245 3.02743L1.24474 1.55888C0.575992 2.17716 0.0578478 2.91102 -0.306128 3.75193L1.52932 4.54638ZM2.60245 3.02743C3.06378 2.60092 3.61323 2.26844 4.26324 2.03371L3.58395 0.152603C2.69796 0.472545 1.91408 0.940062 1.24474 1.55888L2.60245 3.02743ZM4.27049 2.03106C4.92582 1.78868 5.66013 1.66116 6.48359 1.66116V-0.338843C5.45106 -0.338843 4.4787 -0.178365 3.5767 0.155253L4.27049 2.03106ZM6.48359 1.66116C7.48053 1.66116 8.3285 1.82869 9.04694 2.13912L9.84025 0.303187C8.83069 -0.133041 7.70533 -0.338843 6.48359 -0.338843V1.66116ZM9.05103 2.14088C9.78645 2.45478 10.372 2.89313 10.8286 3.45309L12.3786 2.18922C11.7045 1.36252 10.8501 0.734198 9.83616 0.301432L9.05103 2.14088ZM10.9426 2.07074L8.52663 4.19874L9.84856 5.69957L12.2646 3.57157L10.9426 2.07074ZM9.94263 4.29347C9.51638 3.80263 9.02835 3.40845 8.47356 3.13817L7.59763 4.93615C7.87484 5.0712 8.15481 5.28501 8.43256 5.60484L9.94263 4.29347ZM8.50134 3.15224C7.93915 2.85635 7.32356 2.71716 6.67559 2.71716V4.71716C7.0303 4.71716 7.32137 4.7913 7.56985 4.92208L8.50134 3.15224ZM6.67559 2.71716C6.15641 2.71716 5.65675 2.79722 5.18847 2.97283L5.89072 4.84549C6.10511 4.76509 6.36277 4.71716 6.67559 4.71716V2.71716ZM5.1786 2.97659C4.71737 3.15513 4.30953 3.42188 3.96895 3.77794L5.41424 5.16038C5.54299 5.02577 5.70048 4.91919 5.90059 4.84173L5.1786 2.97659ZM3.96895 3.77793C3.63405 4.12806 3.38321 4.53951 3.21126 4.99803L5.08392 5.70028C5.16798 5.47614 5.27981 5.30092 5.41424 5.16038L3.96895 3.77793ZM3.21126 4.99803C3.03369 5.47158 2.95559 5.98323 2.95559 6.51716H4.95559C4.95559 6.17642 5.0055 5.9094 5.08392 5.70028L3.21126 4.99803ZM2.95559 6.51716C2.95559 7.03688 3.03581 7.53792 3.2078 8.0109L5.08739 7.32741C5.00338 7.09639 4.95559 6.82944 4.95559 6.51716H2.95559ZM3.21126 8.02028C3.38321 8.4788 3.63405 8.89025 3.96895 9.24038L5.41424 7.85793C5.27981 7.71739 5.16798 7.54218 5.08392 7.31803L3.21126 8.02028ZM3.96895 9.24038C4.29833 9.58473 4.68705 9.85251 5.12599 10.0427L5.9212 8.2076C5.72014 8.12047 5.55419 8.00425 5.41424 7.85793L3.96895 9.24038ZM5.1626 10.0577C5.62366 10.2362 6.11629 10.3172 6.62759 10.3172V8.31716C6.32824 8.31716 6.08486 8.27011 5.88459 8.19259L5.1626 10.0577ZM6.62759 10.3172C7.16484 10.3172 7.69018 10.2295 8.19928 10.0553L7.55191 8.16299C7.25034 8.26616 6.94368 8.31716 6.62759 8.31716V10.3172ZM8.2213 10.0475C8.74695 9.85384 9.26707 9.54443 9.78041 9.15047L8.56278 7.56385C8.15878 7.87389 7.8149 8.06581 7.52989 8.17081L8.2213 10.0475ZM8.39636 8.98883L10.5084 11.5808L12.0588 10.3175L9.94683 7.72548L8.39636 8.98883ZM10.7259 10.1191C10.1402 10.5127 9.46049 10.8227 8.67753 11.0423L9.21766 12.968C10.184 12.6969 11.0617 12.303 11.8413 11.7792L10.7259 10.1191ZM8.67753 11.0423C7.88156 11.2656 7.12454 11.3732 6.40359 11.3732V13.3732C7.32531 13.3732 8.26429 13.2354 9.21766 12.968L8.67753 11.0423ZM9.00359 10.4692V6.21316H7.00359V10.4692H9.00359ZM8.00359 7.21316H11.2836V5.21316H8.00359V7.21316ZM10.2836 6.21316V10.9492H12.2836V6.21316H10.2836ZM11.4284 9.9597L8.14839 9.4797L7.8588 11.4586L11.1388 11.9386L11.4284 9.9597ZM13.5325 12.1172H12.5325V13.1172H13.5325V12.1172ZM13.5325 0.917156V-0.0828438H12.5325V0.917156H13.5325ZM21.6285 1.42916L21.2176 2.34085L21.2223 2.34297L21.6285 1.42916ZM23.4045 2.90116L22.566 3.44616L22.5702 3.45259L23.4045 2.90116ZM23.4045 7.38116L24.2343 7.93917L24.2387 7.93259L23.4045 7.38116ZM21.6285 8.80516L21.233 7.88666L21.2283 7.8887L21.6285 8.80516ZM15.6285 9.30116L14.9499 8.56662L13.0723 10.3012H15.6285V9.30116ZM17.3085 7.74916H18.3085V5.46394L16.6299 7.01462L17.3085 7.74916ZM17.3085 12.1172V13.1172H18.3085V12.1172H17.3085ZM20.2365 12.1172L19.4074 12.6763L19.7048 13.1172H20.2365V12.1172ZM17.4845 8.03716V7.03716H15.6037L16.6554 8.59635L17.4845 8.03716ZM21.4845 8.03716L22.3105 7.47352L22.0127 7.03716H21.4845V8.03716ZM24.2685 12.1172V13.1172H26.1614L25.0945 11.5535L24.2685 12.1172ZM17.3085 8.16516L16.5947 8.86556L18.3085 10.6119V8.16516H17.3085ZM15.6285 6.45316V5.45316H13.2461L14.9147 7.15356L15.6285 6.45316ZM19.8365 6.10116L19.1607 5.364L19.1529 5.37118L19.1452 5.37852L19.8365 6.10116ZM19.8365 4.18116L19.1452 4.9038L19.1529 4.91114L19.1607 4.91831L19.8365 4.18116ZM15.6285 3.82916L14.9147 3.12875L13.2461 4.82916H15.6285V3.82916ZM17.3085 2.11716H18.3085V-0.329636L16.5947 1.41675L17.3085 2.11716ZM14.5325 12.1172V0.917156H12.5325V12.1172H14.5325ZM13.5325 1.91716H18.9245V-0.0828438H13.5325V1.91716ZM18.9245 1.91716C19.8636 1.91716 20.6182 2.07071 21.2176 2.34084L22.0394 0.517475C21.1241 0.104939 20.076 -0.0828438 18.9245 -0.0828438V1.91716ZM21.2223 2.34297C21.8321 2.61399 22.266 2.98452 22.566 3.44614L24.2429 2.35617C23.711 1.5378 22.9608 0.926987 22.0346 0.515345L21.2223 2.34297ZM22.5702 3.45259C22.863 3.8955 23.0285 4.44395 23.0285 5.14116H25.0285C25.0285 4.11037 24.7779 3.16548 24.2387 2.34972L22.5702 3.45259ZM23.0285 5.14116C23.0285 5.83837 22.863 6.38681 22.5702 6.82972L24.2387 7.93259C24.7779 7.11683 25.0285 6.17195 25.0285 5.14116H23.0285ZM22.5746 6.82316C22.2785 7.26356 21.8467 7.62243 21.233 7.88667L22.0239 9.72364C22.9462 9.32655 23.6984 8.73609 24.2343 7.93915L22.5746 6.82316ZM21.2283 7.8887C20.6259 8.15174 19.8673 8.30116 18.9245 8.30116V10.3012C20.0723 10.3012 21.1164 10.1199 22.0286 9.72161L21.2283 7.8887ZM18.9245 8.30116H15.6285V10.3012H18.9245V8.30116ZM16.307 10.0357L17.987 8.48369L16.6299 7.01462L14.9499 8.56662L16.307 10.0357ZM16.3085 7.74916V12.1172H18.3085V7.74916H16.3085ZM17.3085 11.1172H13.5325V13.1172H17.3085V11.1172ZM21.0655 11.558L18.3135 7.47796L16.6554 8.59635L19.4074 12.6763L21.0655 11.558ZM17.4845 9.03716H21.4845V7.03716H17.4845V9.03716ZM20.6584 8.60079L23.4424 12.6808L25.0945 11.5535L22.3105 7.47352L20.6584 8.60079ZM24.2685 11.1172H20.2365V13.1172H24.2685V11.1172ZM18.0222 7.46475L16.3422 5.75275L14.9147 7.15356L16.5947 8.86556L18.0222 7.46475ZM15.6285 7.45316H18.6845V5.45316H15.6285V7.45316ZM18.6845 7.45316C19.3297 7.45316 20.0174 7.31188 20.5277 6.8238L19.1452 5.37852C19.1648 5.35977 19.0846 5.45316 18.6845 5.45316V7.45316ZM20.5122 6.83831C21.0098 6.38214 21.2205 5.77549 21.2205 5.14116H19.2205C19.2205 5.31748 19.1751 5.35084 19.1607 5.364L20.5122 6.83831ZM21.2205 5.14116C21.2205 4.50682 21.0098 3.90017 20.5122 3.444L19.1607 4.91831C19.1751 4.93148 19.2205 4.96483 19.2205 5.14116H21.2205ZM20.5277 3.45851C20.0174 2.97043 19.3297 2.82916 18.6845 2.82916V4.82916C19.0846 4.82916 19.1648 4.92255 19.1452 4.9038L20.5277 3.45851ZM18.6845 2.82916H15.6285V4.82916H18.6845V2.82916ZM16.3422 4.52956L18.0222 2.81756L16.5947 1.41675L14.9147 3.12875L16.3422 4.52956ZM16.3085 2.11716V8.16516H18.3085V2.11716H16.3085ZM24.8783 12.1172L23.9621 11.7166L23.3498 13.1172H24.8783V12.1172ZM29.7743 0.917156V-0.0828438H29.1201L28.8581 0.516612L29.7743 0.917156ZM33.4863 0.917156L34.4026 0.516612L34.1406 -0.0828438H33.4863V0.917156ZM38.3823 12.1172V13.1172H39.9109L39.2986 11.7166L38.3823 12.1172ZM34.4783 12.1172L33.5449 12.4759L33.7914 13.1172H34.4783V12.1172ZM30.8623 2.70916V1.70916H29.4067L29.9289 3.06792L30.8623 2.70916ZM32.3343 2.70916L33.2678 3.06792L33.79 1.70916H32.3343V2.70916ZM28.7183 12.1172V13.1172H29.4053L29.6518 12.4759L28.7183 12.1172ZM27.7903 10.1652L26.8474 9.83234L26.3769 11.1652H27.7903V10.1652ZM28.7503 7.44516V6.44516H28.0428L27.8074 7.11234L28.7503 7.44516ZM33.9023 7.44516L34.8453 7.11234L34.6099 6.44516H33.9023V7.44516ZM34.8623 10.1652V11.1652H36.2757L35.8053 9.83234L34.8623 10.1652ZM25.7946 12.5177L30.6906 1.3177L28.8581 0.516612L23.9621 11.7166L25.7946 12.5177ZM29.7743 1.91716H33.4863V-0.0828438H29.7743V1.91716ZM32.5701 1.3177L37.4661 12.5177L39.2986 11.7166L34.4026 0.516612L32.5701 1.3177ZM38.3823 11.1172H34.4783V13.1172H38.3823V11.1172ZM35.4118 11.7584L31.7958 2.35039L29.9289 3.06792L33.5449 12.4759L35.4118 11.7584ZM30.8623 3.70916H32.3343V1.70916H30.8623V3.70916ZM31.4009 2.35039L27.7849 11.7584L29.6518 12.4759L33.2678 3.06792L31.4009 2.35039ZM28.7183 11.1172H24.8783V13.1172H28.7183V11.1172ZM28.7333 10.498L29.6933 7.77798L27.8074 7.11234L26.8474 9.83234L28.7333 10.498ZM28.7503 8.44516H33.9023V6.44516H28.7503V8.44516ZM32.9594 7.77798L33.9194 10.498L35.8053 9.83234L34.8453 7.11234L32.9594 7.77798ZM34.8623 9.16516H27.7903V11.1652H34.8623V9.16516ZM39.625 12.1172H38.625V13.1172H39.625V12.1172ZM39.625 0.917156V-0.0828438H38.625V0.917156H39.625ZM42.729 0.917156L43.4963 0.275909L43.1965 -0.0828438H42.729V0.917156ZM48.425 7.73316V8.73316H50.5639L49.1923 7.09191L48.425 7.73316ZM46.985 7.73316H45.985V8.73316H46.985V7.73316ZM46.985 0.917156V-0.0828438H45.985V0.917156H46.985ZM50.665 0.917156H51.665V-0.0828438H50.665V0.917156ZM50.665 12.1172V13.1172H51.665V12.1172H50.665ZM47.561 12.1172L46.7936 12.7584L47.0934 13.1172H47.561V12.1172ZM41.865 5.30116V4.30116H39.7261L41.0976 5.9424L41.865 5.30116ZM43.305 5.30116H44.305V4.30116H43.305V5.30116ZM43.305 12.1172V13.1172H44.305V12.1172H43.305ZM40.625 12.1172V0.917156H38.625V12.1172H40.625ZM39.625 1.91716H42.729V-0.0828438H39.625V1.91716ZM41.9616 1.5584L47.6576 8.3744L49.1923 7.09191L43.4963 0.275909L41.9616 1.5584ZM48.425 6.73316H46.985V8.73316H48.425V6.73316ZM47.985 7.73316V0.917156H45.985V7.73316H47.985ZM46.985 1.91716H50.665V-0.0828438H46.985V1.91716ZM49.665 0.917156V12.1172H51.665V0.917156H49.665ZM50.665 11.1172H47.561V13.1172H50.665V11.1172ZM48.3283 11.4759L42.6323 4.65991L41.0976 5.9424L46.7936 12.7584L48.3283 11.4759ZM41.865 6.30116H43.305V4.30116H41.865V6.30116ZM42.305 5.30116V12.1172H44.305V5.30116H42.305ZM43.305 11.1172H39.625V13.1172H43.305V11.1172ZM53.1243 12.1172H52.1243V13.1172H53.1243V12.1172ZM53.1243 0.917156V-0.0828438H52.1243V0.917156H53.1243ZM61.9403 1.60516L61.5053 2.50561L61.5136 2.50951L61.9403 1.60516ZM64.1643 3.52516L63.3225 4.06482L64.1643 3.52516ZM64.1643 9.50916L65.0062 10.0488L65.0093 10.044L64.1643 9.50916ZM61.9403 11.4452L62.3671 12.3496L62.3754 12.3456L61.9403 11.4452ZM56.9003 9.17316H55.9003V10.1732H56.9003V9.17316ZM59.8763 8.86916L59.4291 7.97468L59.4195 7.97959L59.8763 8.86916ZM60.8203 7.97316L61.6901 8.46679L61.6956 8.45684L60.8203 7.97316ZM60.8203 5.06116L61.69 4.56755V4.56755L60.8203 5.06116ZM59.8763 4.16516L59.4195 5.05478L59.4291 5.05958L59.8763 4.16516ZM56.9003 3.86116V2.86116H55.9003V3.86116H56.9003ZM54.1243 12.1172V0.917156H52.1243V12.1172H54.1243ZM53.1243 1.91716H58.6443V-0.0828438H53.1243V1.91716ZM58.6443 1.91716C59.7691 1.91716 60.7144 2.12342 61.5053 2.50557L62.3754 0.704742C61.2677 0.169558 60.0156 -0.0828438 58.6443 -0.0828438V1.91716ZM61.5136 2.50951C62.3041 2.88256 62.8969 3.40093 63.3225 4.06482L65.0062 2.98549C64.3651 1.98538 63.4753 1.22375 62.3671 0.700799L61.5136 2.50951ZM63.3225 4.06482C63.7364 4.71055 63.9643 5.50814 63.9643 6.50116H65.9643C65.9643 5.19017 65.659 4.00376 65.0062 2.98549L63.3225 4.06482ZM63.9643 6.50116C63.9643 7.50646 63.7356 8.31672 63.3194 8.97436L65.0093 10.044C65.6598 9.01626 65.9643 7.82118 65.9643 6.50116H63.9643ZM63.3225 8.96949C62.8955 9.63549 62.2999 10.1608 61.5053 10.5447L62.3754 12.3456C63.4795 11.8121 64.3665 11.0468 65.0062 10.0488L63.3225 8.96949ZM61.5136 10.5408C60.7206 10.915 59.7723 11.1172 58.6443 11.1172V13.1172C60.0124 13.1172 61.2615 12.8713 62.3671 12.3495L61.5136 10.5408ZM58.6443 11.1172H53.1243V13.1172H58.6443V11.1172ZM56.9003 10.1732H58.4843V8.17316H56.9003V10.1732ZM58.4843 10.1732C59.1447 10.1732 59.7713 10.0472 60.3331 9.75872L59.4195 7.97959C59.192 8.09642 58.8906 8.17316 58.4843 8.17316V10.1732ZM60.3236 9.76358C60.9066 9.47205 61.3682 9.03374 61.69 8.46676L59.9507 7.47955C59.8245 7.70191 59.6567 7.86093 59.4291 7.97473L60.3236 9.76358ZM61.6956 8.45684C62.0191 7.8715 62.1563 7.20568 62.1563 6.50116H60.1563C60.1563 6.94864 60.0696 7.26414 59.9451 7.48947L61.6956 8.45684ZM62.1563 6.50116C62.1563 5.80479 62.018 5.14545 61.69 4.56755L59.9507 5.55476C60.0707 5.7662 60.1563 6.06686 60.1563 6.50116H62.1563ZM61.69 4.56755C61.3682 4.00058 60.9066 3.56226 60.3236 3.27073L59.4291 5.05958C59.6567 5.17338 59.8245 5.3324 59.9507 5.55476L61.69 4.56755ZM60.3331 3.27559C59.7713 2.98708 59.1447 2.86116 58.4843 2.86116V4.86116C58.8906 4.86116 59.192 4.9379 59.4195 5.05472L60.3331 3.27559ZM58.4843 2.86116H56.9003V4.86116H58.4843V2.86116ZM55.9003 3.86116V9.17316H57.9003V3.86116H55.9003ZM72.884 11.9572L72.5053 12.8828L72.5174 12.8876L72.884 11.9572ZM71.124 10.7092L70.3608 10.063L69.8085 10.7153L70.3668 11.3624L71.124 10.7092ZM73.156 8.30916L73.9279 7.67345L73.1666 6.74902L72.3928 7.66299L73.156 8.30916ZM74.036 9.14116L73.4813 9.97321L73.4921 9.98044L73.5032 9.98739L74.036 9.14116ZM76.148 3.76516H77.148V2.76516H76.148V3.76516ZM72.34 3.76516H71.34V4.76516H72.34V3.76516ZM72.34 0.917156V-0.0828438H71.34V0.917156H72.34ZM79.876 0.917156H80.876V-0.0828438H79.876V0.917156ZM78.692 11.2372L79.3843 11.9587L78.692 11.2372ZM75.252 11.3732C74.4834 11.3732 73.821 11.2515 73.2505 11.0267L72.5174 12.8876C73.3549 13.2175 74.2712 13.3732 75.252 13.3732V11.3732ZM73.2626 11.0316C72.6957 10.7997 72.2415 10.4736 71.8811 10.0559L70.3668 11.3624C70.9451 12.0327 71.6643 12.5386 72.5053 12.8827L73.2626 11.0316ZM71.8872 11.3553L73.9192 8.95533L72.3928 7.66299L70.3608 10.063L71.8872 11.3553ZM72.384 8.94486C72.7244 9.35818 73.0884 9.71127 73.4813 9.97321L74.5907 8.30911C74.4076 8.18704 74.1849 7.98547 73.9279 7.67345L72.384 8.94486ZM73.5032 9.98739C73.9342 10.2588 74.4154 10.4132 74.932 10.4132V8.41316C74.8298 8.41316 74.7138 8.38622 74.5688 8.29492L73.5032 9.98739ZM74.932 10.4132C75.5292 10.4132 76.149 10.236 76.5971 9.72305C77.0226 9.23595 77.148 8.6086 77.148 8.02116H75.148C75.148 8.36171 75.0707 8.43036 75.0909 8.40726C75.1032 8.39313 75.1155 8.38879 75.1075 8.39186C75.0934 8.39721 75.0416 8.41316 74.932 8.41316V10.4132ZM77.148 8.02116V3.76516H75.148V8.02116H77.148ZM76.148 2.76516H72.34V4.76516H76.148V2.76516ZM73.34 3.76516V0.917156H71.34V3.76516H73.34ZM72.34 1.91716H79.876V-0.0828438H72.34V1.91716ZM78.876 0.917156V7.79716H80.876V0.917156H78.876ZM78.876 7.79716C78.876 9.17309 78.5239 10.0126 77.9996 10.5156L79.3843 11.9587C80.4387 10.9471 80.876 9.49322 80.876 7.79716H78.876ZM77.9996 10.5156C77.457 11.0362 76.5961 11.3732 75.252 11.3732V13.3732C76.9158 13.3732 78.3482 12.9528 79.3843 11.9587L77.9996 10.5156ZM80.7971 12.1172L79.8808 11.7166L79.2686 13.1172H80.7971V12.1172ZM85.6931 0.917156V-0.0828438H85.0389L84.7768 0.516612L85.6931 0.917156ZM89.4051 0.917156L90.3214 0.516612L90.0593 -0.0828438H89.4051V0.917156ZM94.3011 12.1172V13.1172H95.8296L95.2174 11.7166L94.3011 12.1172ZM90.3971 12.1172L89.4637 12.4759L89.7101 13.1172H90.3971V12.1172ZM86.7811 2.70916V1.70916H85.3254L85.8477 3.06792L86.7811 2.70916ZM88.2531 2.70916L89.1865 3.06792L89.7088 1.70916H88.2531V2.70916ZM84.6371 12.1172V13.1172H85.3241L85.5705 12.4759L84.6371 12.1172ZM83.7091 10.1652L82.7661 9.83234L82.2957 11.1652H83.7091V10.1652ZM84.6691 7.44516V6.44516H83.9616L83.7261 7.11234L84.6691 7.44516ZM89.8211 7.44516L90.7641 7.11234L90.5286 6.44516H89.8211V7.44516ZM90.7811 10.1652V11.1652H92.1945L91.7241 9.83234L90.7811 10.1652ZM81.7134 12.5177L86.6094 1.3177L84.7768 0.516612L79.8808 11.7166L81.7134 12.5177ZM85.6931 1.91716H89.4051V-0.0828438H85.6931V1.91716ZM88.4888 1.3177L93.3848 12.5177L95.2174 11.7166L90.3214 0.516612L88.4888 1.3177ZM94.3011 11.1172H90.3971V13.1172H94.3011V11.1172ZM91.3305 11.7584L87.7145 2.35039L85.8477 3.06792L89.4637 12.4759L91.3305 11.7584ZM86.7811 3.70916H88.2531V1.70916H86.7811V3.70916ZM87.3197 2.35039L83.7037 11.7584L85.5705 12.4759L89.1865 3.06792L87.3197 2.35039ZM84.6371 11.1172H80.7971V13.1172H84.6371V11.1172ZM84.6521 10.498L85.6121 7.77798L83.7261 7.11234L82.7661 9.83234L84.6521 10.498ZM84.6691 8.44516H89.8211V6.44516H84.6691V8.44516ZM88.8781 7.77798L89.8381 10.498L91.7241 9.83234L90.7641 7.11234L88.8781 7.77798ZM90.7811 9.16516H83.7091V11.1652H90.7811V9.16516ZM98.6835 11.9572L98.328 12.8919L98.3359 12.8948L98.3438 12.8977L98.6835 11.9572ZM96.6995 10.7412L96.0136 11.469L96.0206 11.4754L96.6995 10.7412ZM95.4035 8.88516L94.4857 9.28238L95.4035 8.88516ZM95.4035 4.14916L94.4857 3.75193L95.4035 4.14916ZM96.6995 2.29316L96.0206 1.55885L96.0137 1.56537L96.6995 2.29316ZM98.6835 1.09316L99.0273 2.0322L99.0346 2.02949L98.6835 1.09316ZM104.091 1.23716L103.677 2.14714L103.681 2.14908L104.091 1.23716ZM106.203 2.90116L106.869 3.64718L107.561 3.02997L106.998 2.29371L106.203 2.90116ZM103.819 5.02916L103.037 5.6514L103.695 6.48026L104.485 5.77518L103.819 5.02916ZM102.715 4.06916L102.204 4.92869L102.218 4.93676L102.232 4.9444L102.715 4.06916ZM100.299 3.90916L100.671 4.83763V4.83763L100.299 3.90916ZM99.4675 4.46916L98.7448 3.77793L98.7368 3.78632L98.729 3.79489L99.4675 4.46916ZM98.9395 5.36516L99.8758 5.7163L99.8793 5.7069L98.9395 5.36516ZM98.9395 7.68516L97.9996 8.02692L98.0031 8.03628L98.9395 7.68516ZM99.4675 8.56516L98.729 9.23943L98.7368 9.24799L98.7448 9.25638L99.4675 8.56516ZM100.299 9.12516L99.9281 10.0536L100.299 9.12516ZM102.715 8.98116L103.209 9.85087L103.217 9.84658L102.715 8.98116ZM103.819 8.00516L104.485 7.25913L103.695 6.55405L103.037 7.38291L103.819 8.00516ZM106.203 10.1332L106.993 10.7463L107.566 10.0088L106.869 9.38713L106.203 10.1332ZM104.091 11.7972L104.506 12.7071L104.511 12.7048L104.091 11.7972ZM101.179 11.3732C100.388 11.3732 99.6721 11.251 99.0231 11.0166L98.3438 12.8977C99.2308 13.218 100.179 13.3732 101.179 13.3732V11.3732ZM99.0389 11.0225C98.3949 10.7775 97.8448 10.4382 97.3783 10.0069L96.0206 11.4754C96.6848 12.0895 97.4574 12.5608 98.328 12.8919L99.0389 11.0225ZM97.3853 10.0134C96.9318 9.58604 96.5777 9.08058 96.3212 8.48793L94.4857 9.28238C94.8479 10.1191 95.3578 10.8509 96.0137 11.4689L97.3853 10.0134ZM96.3212 8.48793C96.0718 7.91175 95.9395 7.25954 95.9395 6.51716H93.9395C93.9395 7.50278 94.1165 8.42923 94.4857 9.28238L96.3212 8.48793ZM95.9395 6.51716C95.9395 5.77478 96.0718 5.12257 96.3212 4.54638L94.4857 3.75193C94.1165 4.60508 93.9395 5.53154 93.9395 6.51716H95.9395ZM96.3212 4.54638C96.5777 3.95373 96.9318 3.44828 97.3853 3.02095L96.0137 1.56537C95.3578 2.18337 94.8479 2.91525 94.4857 3.75193L96.3212 4.54638ZM97.3783 3.02743C97.842 2.59871 98.3881 2.26626 99.0273 2.03218L98.3396 0.154138C97.4642 0.474716 96.6876 0.942265 96.0206 1.55888L97.3783 3.02743ZM99.0346 2.02949C99.6804 1.78731 100.392 1.66116 101.179 1.66116V-0.338843C100.175 -0.338843 99.2226 -0.177001 98.3324 0.156827L99.0346 2.02949ZM101.179 1.66116C102.161 1.66116 102.986 1.83248 103.677 2.14713L104.506 0.327185C103.511 -0.126168 102.395 -0.338843 101.179 -0.338843V1.66116ZM103.681 2.14908C104.387 2.46676 104.958 2.9184 105.409 3.50861L106.998 2.29371C106.34 1.43324 105.503 0.775548 104.502 0.325235L103.681 2.14908ZM105.538 2.15513L103.154 4.28313L104.485 5.77518L106.869 3.64718L105.538 2.15513ZM104.602 4.40691C104.202 3.90278 103.736 3.49041 103.199 3.19392L102.232 4.9444C102.506 5.0959 102.776 5.32353 103.037 5.6514L104.602 4.40691ZM103.227 3.20962C102.663 2.87468 102.036 2.71716 101.371 2.71716V4.71716C101.71 4.71716 101.978 4.7943 102.204 4.92869L103.227 3.20962ZM101.371 2.71716C100.868 2.71716 100.382 2.79908 99.9281 2.98068L100.671 4.83763C100.857 4.76323 101.086 4.71716 101.371 4.71716V2.71716ZM99.9281 2.98068C99.4775 3.16092 99.0798 3.42772 98.7448 3.77793L100.19 5.16038C100.324 5.01993 100.481 4.91339 100.671 4.83763L99.9281 2.98068ZM98.729 3.79489C98.4062 4.14839 98.1667 4.56409 97.9997 5.02341L99.8793 5.7069C99.9682 5.46223 100.081 5.28059 100.206 5.14343L98.729 3.79489ZM98.0031 5.01403C97.8265 5.485 97.7475 5.99063 97.7475 6.51716H99.7475C99.7475 6.19035 99.7964 5.92798 99.8758 5.71628L98.0031 5.01403ZM97.7475 6.51716C97.7475 7.04436 97.8267 7.55126 97.9997 8.0269L99.8793 7.34341C99.7962 7.11506 99.7475 6.84329 99.7475 6.51716H97.7475ZM98.0031 8.03628C98.1715 8.4853 98.411 8.8912 98.729 9.23943L100.206 7.89089C100.076 7.74845 99.9634 7.56768 99.8758 7.33403L98.0031 8.03628ZM98.7448 9.25638C99.0798 9.60659 99.4775 9.87339 99.9281 10.0536L100.671 8.19668C100.481 8.12093 100.324 8.01439 100.19 7.87393L98.7448 9.25638ZM99.9281 10.0536C100.382 10.2352 100.868 10.3172 101.371 10.3172V8.31716C101.086 8.31716 100.857 8.27108 100.671 8.19668L99.9281 10.0536ZM101.371 10.3172C102.027 10.3172 102.649 10.169 103.209 9.85084L102.222 8.11147C101.993 8.24134 101.718 8.31716 101.371 8.31716V10.3172ZM103.217 9.84658C103.744 9.54134 104.204 9.12829 104.602 8.6274L103.037 7.38291C102.773 7.71402 102.498 7.95164 102.214 8.11573L103.217 9.84658ZM103.154 8.75118L105.538 10.8792L106.869 9.38713L104.485 7.25913L103.154 8.75118ZM105.413 9.52003C104.961 10.1033 104.386 10.5593 103.672 10.8895L104.511 12.7048C105.504 12.2457 106.337 11.5923 106.993 10.7463L105.413 9.52003ZM103.677 10.8872C102.986 11.2018 102.161 11.3732 101.179 11.3732V13.3732C102.395 13.3732 103.511 13.1605 104.506 12.7071L103.677 10.8872ZM111.31 9.71716L110.311 9.76729L110.432 12.1868L112.053 10.3861L111.31 9.71716ZM111.102 5.57316L110.361 4.90124L110.082 5.20869L110.103 5.62329L111.102 5.57316ZM115.326 0.917156V-0.0828438H114.883L114.585 0.245244L115.326 0.917156ZM119.438 0.917156L120.178 1.58938L121.696 -0.0828438H119.438V0.917156ZM114.702 6.13316L115.417 6.83221L115.43 6.81903L115.442 6.80538L114.702 6.13316ZM112.606 8.27716L111.891 7.5781L111.876 7.59285L111.862 7.60819L112.606 8.27716ZM107.934 12.1172H106.934V13.1172H107.934V12.1172ZM107.934 0.917156V-0.0828438H106.934V0.917156H107.934ZM111.646 0.917156H112.646V-0.0828438H111.646V0.917156ZM111.646 12.1172V13.1172H112.646V12.1172H111.646ZM115.294 12.1172L114.497 12.7209L114.797 13.1172H115.294V12.1172ZM111.998 7.76516L111.271 7.07853L110.689 7.69402L111.201 8.3689L111.998 7.76516ZM114.446 5.17316L115.245 4.57257L114.533 3.62433L113.719 4.48653L114.446 5.17316ZM119.662 12.1172V13.1172H121.664L120.461 11.5166L119.662 12.1172ZM112.308 9.66703L112.1 5.52303L110.103 5.62329L110.311 9.76729L112.308 9.66703ZM111.842 6.24507L116.066 1.58907L114.585 0.245244L110.361 4.90124L111.842 6.24507ZM115.326 1.91716H119.438V-0.0828438H115.326V1.91716ZM118.697 0.244936L113.961 5.46094L115.442 6.80538L120.178 1.58938L118.697 0.244936ZM113.987 5.4341L111.891 7.5781L113.321 8.97621L115.417 6.83221L113.987 5.4341ZM111.862 7.60819L110.566 9.04819L112.053 10.3861L113.349 8.94612L111.862 7.60819ZM108.934 12.1172V0.917156H106.934V12.1172H108.934ZM107.934 1.91716H111.646V-0.0828438H107.934V1.91716ZM110.646 0.917156V12.1172H112.646V0.917156H110.646ZM111.646 11.1172H107.934V13.1172H111.646V11.1172ZM116.091 11.5134L112.795 7.16141L111.201 8.3689L114.497 12.7209L116.091 11.5134ZM112.725 8.45178L115.173 5.85978L113.719 4.48653L111.271 7.07853L112.725 8.45178ZM113.646 5.77375L118.862 12.7177L120.461 11.5166L115.245 4.57257L113.646 5.77375ZM119.662 11.1172H115.294V13.1172H119.662V11.1172ZM120.808 12.1172H119.808V13.1172H120.808V12.1172ZM120.808 0.917156V-0.0828438H119.808V0.917156H120.808ZM128.904 1.42916L128.493 2.34085L128.498 2.34297L128.904 1.42916ZM130.68 2.90116L129.842 3.44616L129.846 3.45259L130.68 2.90116ZM130.68 7.38116L129.846 6.82972V6.82972L130.68 7.38116ZM128.904 8.85316L129.315 9.76486L129.321 9.76222L128.904 8.85316ZM122.904 9.36516L122.211 8.64446L120.422 10.3652H122.904V9.36516ZM124.584 7.74916H125.584V5.39971L123.891 7.02846L124.584 7.74916ZM124.584 12.1172V13.1172H125.584V12.1172H124.584ZM124.584 8.16516L123.87 8.86556L125.584 10.6119V8.16516H124.584ZM122.904 6.45316V5.45316H120.522L122.19 7.15356L122.904 6.45316ZM127.112 6.10116L126.436 5.364L126.429 5.37118L126.421 5.37852L127.112 6.10116ZM127.112 4.18116L126.421 4.9038L126.429 4.91114L126.436 4.91831L127.112 4.18116ZM122.904 3.82916L122.19 3.12875L120.522 4.82916H122.904V3.82916ZM124.584 2.11716H125.584V-0.329636L123.87 1.41675L124.584 2.11716ZM121.808 12.1172V0.917156H119.808V12.1172H121.808ZM120.808 1.91716H126.2V-0.0828438H120.808V1.91716ZM126.2 1.91716C127.139 1.91716 127.894 2.07071 128.493 2.34084L129.315 0.517475C128.4 0.104939 127.352 -0.0828438 126.2 -0.0828438V1.91716ZM128.498 2.34297C129.108 2.61399 129.542 2.98452 129.842 3.44614L131.519 2.35617C130.987 1.5378 130.236 0.926987 129.31 0.515345L128.498 2.34297ZM129.846 3.45259C130.139 3.8955 130.304 4.44395 130.304 5.14116H132.304C132.304 4.11037 132.054 3.16548 131.514 2.34972L129.846 3.45259ZM130.304 5.14116C130.304 5.83837 130.139 6.38681 129.846 6.82972L131.514 7.93259C132.054 7.11683 132.304 6.17195 132.304 5.14116H130.304ZM129.846 6.82972C129.545 7.285 129.107 7.66034 128.487 7.94409L129.321 9.76222C130.238 9.34197 130.983 8.73598 131.514 7.93259L129.846 6.82972ZM128.493 7.94148C127.894 8.21161 127.139 8.36516 126.2 8.36516V10.3652C127.352 10.3652 128.4 10.1774 129.315 9.76484L128.493 7.94148ZM126.2 8.36516H122.904V10.3652H126.2V8.36516ZM123.597 10.0859L125.277 8.46986L123.891 7.02846L122.211 8.64446L123.597 10.0859ZM123.584 7.74916V12.1172H125.584V7.74916H123.584ZM124.584 11.1172H120.808V13.1172H124.584V11.1172ZM125.298 7.46475L123.618 5.75275L122.19 7.15356L123.87 8.86556L125.298 7.46475ZM122.904 7.45316H125.96V5.45316H122.904V7.45316ZM125.96 7.45316C126.605 7.45316 127.293 7.31188 127.803 6.8238L126.421 5.37852C126.44 5.35977 126.36 5.45316 125.96 5.45316V7.45316ZM127.788 6.83831C128.285 6.38214 128.496 5.77549 128.496 5.14116H126.496C126.496 5.31748 126.451 5.35084 126.436 5.364L127.788 6.83831ZM128.496 5.14116C128.496 4.50682 128.285 3.90017 127.788 3.444L126.436 4.91831C126.451 4.93148 126.496 4.96483 126.496 5.14116H128.496ZM127.803 3.45851C127.293 2.97043 126.605 2.82916 125.96 2.82916V4.82916C126.36 4.82916 126.44 4.92255 126.421 4.9038L127.803 3.45851ZM125.96 2.82916H122.904V4.82916H125.96V2.82916ZM123.618 4.52956L125.298 2.81756L123.87 1.41675L122.19 3.12875L123.618 4.52956ZM123.584 2.11716V8.16516H125.584V2.11716H123.584ZM136.683 11.9412L136.332 12.8775L136.336 12.8791L136.683 11.9412ZM134.683 10.7252L133.996 11.4526L134.004 11.4594L134.683 10.7252ZM133.355 8.85316L132.437 9.25041L132.442 9.26182L133.355 8.85316ZM133.355 4.18116L132.442 3.77248L132.439 3.77888L133.355 4.18116ZM134.683 2.32516L135.362 3.05947L135.369 3.05255L134.683 2.32516ZM136.683 1.09316L136.336 0.155244L136.332 0.156827L136.683 1.09316ZM141.739 1.09316L141.388 2.02949V2.02949L141.739 1.09316ZM143.739 2.32516L143.052 3.05259L143.06 3.05943L143.739 2.32516ZM145.051 4.18116L144.133 4.57838L144.137 4.5867L144.14 4.59496L145.051 4.18116ZM145.051 8.85316L144.138 8.44446L144.133 8.45593L145.051 8.85316ZM143.739 10.7252L144.418 11.4595L144.425 11.4526L143.739 10.7252ZM141.739 11.9412L141.388 11.0048L141.739 11.9412ZM140.187 9.12516L139.804 8.20107L139.793 8.20601L140.187 9.12516ZM140.987 8.58116L140.264 7.88993L140.263 7.89068L140.987 8.58116ZM141.531 7.70116L142.467 8.0523L142.471 8.0429L141.531 7.70116ZM141.531 5.34916L140.591 5.69092L140.594 5.70028L141.531 5.34916ZM140.987 4.46916L140.248 5.14343L140.264 5.1602L140.28 5.17626L140.987 4.46916ZM140.187 3.90916L139.793 4.82837L139.804 4.83317L140.187 3.90916ZM138.219 3.90916L137.836 2.98507L137.825 2.99001L138.219 3.90916ZM137.419 4.46916L136.696 3.77793L136.695 3.77868L137.419 4.46916ZM136.891 5.34916L137.827 5.7003L137.831 5.6909L136.891 5.34916ZM136.891 7.70116L135.951 8.04292L135.954 8.05228L136.891 7.70116ZM137.419 8.58116L136.68 9.25543L136.696 9.2722L136.712 9.28826L137.419 8.58116ZM138.219 9.12516L137.825 10.0444L137.836 10.0492L138.219 9.12516ZM139.211 11.3732C138.412 11.3732 137.687 11.2466 137.03 11.0033L136.336 12.8791C137.235 13.2118 138.197 13.3732 139.211 13.3732V11.3732ZM137.034 11.0048C136.379 10.7593 135.826 10.42 135.362 9.99088L134.004 11.4594C134.67 12.0757 135.45 12.547 136.332 12.8775L137.034 11.0048ZM135.369 9.99776C134.9 9.55543 134.534 9.03998 134.267 8.44449L132.442 9.26182C132.815 10.0957 133.335 10.8282 133.996 11.4526L135.369 9.99776ZM134.272 8.45593C134.022 7.87667 133.891 7.23452 133.891 6.51716H131.891C131.891 7.48512 132.069 8.40031 132.437 9.25038L134.272 8.45593ZM133.891 6.51716C133.891 5.78705 134.022 5.14737 134.27 4.58343L132.439 3.77888C132.068 4.62295 131.891 5.5406 131.891 6.51716H133.891ZM134.267 4.58982C134.533 3.99621 134.897 3.48886 135.362 3.05943L134.004 1.59088C133.338 2.20678 132.816 2.93677 132.442 3.77249L134.267 4.58982ZM135.369 3.05255C135.832 2.61544 136.383 2.27343 137.034 2.02949L136.332 0.156827C135.446 0.48888 134.664 0.968208 133.996 1.59776L135.369 3.05255ZM137.03 2.03106C137.687 1.78775 138.412 1.66116 139.211 1.66116V-0.338843C138.197 -0.338843 137.235 -0.177438 136.336 0.155253L137.03 2.03106ZM139.211 1.66116C140.022 1.66116 140.744 1.78828 141.388 2.02949L142.09 0.156828C141.197 -0.177963 140.234 -0.338843 139.211 -0.338843V1.66116ZM141.388 2.02949C142.038 2.27343 142.589 2.61544 143.052 3.05255L144.425 1.59776C143.758 0.968208 142.975 0.48888 142.09 0.156827L141.388 2.02949ZM143.06 3.05943C143.522 3.48649 143.878 3.98996 144.133 4.57838L145.968 3.78393C145.604 2.94302 145.086 2.20916 144.418 1.59088L143.06 3.05943ZM144.14 4.59496C144.395 5.1561 144.531 5.79168 144.531 6.51716H146.531C146.531 5.53597 146.346 4.61422 145.961 3.76735L144.14 4.59496ZM144.531 6.51716C144.531 7.22985 144.396 7.86795 144.138 8.44449L145.963 9.26182C146.345 8.40903 146.531 7.48979 146.531 6.51716H144.531ZM144.133 8.45593C143.877 9.04622 143.519 9.55781 143.052 9.99776L144.425 11.4526C145.089 10.8258 145.605 10.0894 145.968 9.25038L144.133 8.45593ZM143.06 9.99088C142.596 10.42 142.042 10.7593 141.388 11.0048L142.09 12.8775C142.971 12.547 143.751 12.0757 144.418 11.4594L143.06 9.99088ZM141.388 11.0048C140.744 11.246 140.022 11.3732 139.211 11.3732V13.3732C140.234 13.3732 141.197 13.2123 142.09 12.8775L141.388 11.0048ZM139.211 10.3172C139.687 10.3172 140.147 10.23 140.581 10.0443L139.793 8.20601C139.629 8.27635 139.439 8.31716 139.211 8.31716V10.3172ZM140.569 10.0492C141.003 9.86967 141.387 9.61029 141.71 9.27163L140.263 7.89068C140.139 8.02136 139.989 8.12465 139.804 8.20114L140.569 10.0492ZM141.709 9.27238C142.044 8.92225 142.295 8.5108 142.467 8.05228L140.594 7.35003C140.51 7.57418 140.398 7.74939 140.264 7.88993L141.709 9.27238ZM142.471 8.0429C142.644 7.5647 142.723 7.05189 142.723 6.51716H140.723C140.723 6.85709 140.673 7.13361 140.591 7.35941L142.471 8.0429ZM142.723 6.51716C142.723 5.98322 142.645 5.47158 142.467 4.99803L140.594 5.70028C140.673 5.9094 140.723 6.17642 140.723 6.51716H142.723ZM142.471 5.00741C142.299 4.53581 142.044 4.11259 141.694 3.76205L140.28 5.17626C140.398 5.29505 140.506 5.4585 140.591 5.6909L142.471 5.00741ZM141.725 3.79489C141.401 3.44032 141.013 3.1688 140.569 2.98514L139.804 4.83317C139.979 4.90551 140.124 5.00733 140.248 5.14343L141.725 3.79489ZM140.581 2.99001C140.147 2.80435 139.687 2.71716 139.211 2.71716V4.71716C139.439 4.71716 139.629 4.75796 139.793 4.8283L140.581 2.99001ZM139.211 2.71716C138.734 2.71716 138.273 2.80442 137.836 2.98514L138.601 4.83317C138.783 4.7579 138.983 4.71716 139.211 4.71716V2.71716ZM137.825 2.99001C137.397 3.17344 137.02 3.43971 136.696 3.77793L138.141 5.16038C138.287 5.00794 138.443 4.90087 138.613 4.8283L137.825 2.99001ZM136.695 3.77868C136.362 4.12766 136.119 4.5454 135.951 5.00741L137.831 5.6909C137.919 5.44891 138.027 5.27998 138.142 5.15963L136.695 3.77868ZM135.954 4.99803C135.777 5.47158 135.699 5.98323 135.699 6.51716H137.699C137.699 6.17642 137.749 5.9094 137.827 5.70028L135.954 4.99803ZM135.699 6.51716C135.699 7.05189 135.777 7.5647 135.951 8.0429L137.831 7.35941C137.748 7.13361 137.699 6.85709 137.699 6.51716H135.699ZM135.954 8.05228C136.123 8.5013 136.362 8.9072 136.68 9.25543L138.157 7.90689C138.027 7.76445 137.915 7.58368 137.827 7.35003L135.954 8.05228ZM136.712 9.28826C137.034 9.61093 137.407 9.86511 137.825 10.0443L138.613 8.20601C138.433 8.12921 138.272 8.02072 138.126 7.87405L136.712 9.28826ZM137.836 10.0492C138.273 10.2299 138.734 10.3172 139.211 10.3172V8.31716C138.983 8.31716 138.783 8.27642 138.601 8.20114L137.836 10.0492ZM149.817 12.1172H148.817V13.1172H149.817V12.1172ZM149.817 3.84516H150.817V2.84516H149.817V3.84516ZM146.537 3.84516H145.537V4.84516H146.537V3.84516ZM146.537 0.917156V-0.0828438H145.537V0.917156H146.537ZM156.873 0.917156H157.873V-0.0828438H156.873V0.917156ZM156.873 3.84516V4.84516H157.873V3.84516H156.873ZM153.593 3.84516V2.84516H152.593V3.84516H153.593ZM153.593 12.1172V13.1172H154.593V12.1172H153.593ZM150.817 12.1172V3.84516H148.817V12.1172H150.817ZM149.817 2.84516H146.537V4.84516H149.817V2.84516ZM147.537 3.84516V0.917156H145.537V3.84516H147.537ZM146.537 1.91716H156.873V-0.0828438H146.537V1.91716ZM155.873 0.917156V3.84516H157.873V0.917156H155.873ZM156.873 2.84516H153.593V4.84516H156.873V2.84516ZM152.593 3.84516V12.1172H154.593V3.84516H152.593ZM153.593 11.1172H149.817V13.1172H153.593V11.1172Z" fill="black"/>
<defs>
<linearGradient id="paint0_linear_1_81" x1="85.816" y1="-3.88284" x2="85.816" y2="16.5553" gradientUnits="userSpaceOnUse">
<stop offset="0.198266" stop-color="#FF0000"/>
<stop offset="0.90008" stop-color="#FF0000" stop-opacity="0"/>
</linearGradient>
</defs>
</svg>
