<svg width="27" height="26" viewBox="0 0 27 26" fill="none" xmlns="http://www.w3.org/2000/svg">
<path id="user icon" d="M13.4935 26C20.8927 26 27 20.116 27 13C27 5.88394 20.8796 0 13.4804 0C6.09424 0 0 5.88394 0 13C0 20.116 6.10729 26 13.4935 26ZM13.4935 17.3501C9.81344 17.3501 6.95553 18.6199 5.57225 20.0783C3.79749 18.2301 2.71436 15.7408 2.71436 13C2.71436 7.22921 7.50362 2.60251 13.4804 2.60251C19.4703 2.60251 24.2857 7.22921 24.2987 13C24.2987 15.7408 23.2156 18.2301 21.4278 20.0909C20.0444 18.6199 17.1865 17.3501 13.4935 17.3501ZM13.4935 15.2882C16.0251 15.3134 17.9956 13.2263 17.9956 10.5358C17.9956 7.99613 16.0121 5.87137 13.4935 5.87137C10.9879 5.87137 8.99129 7.99613 9.00434 10.5358C9.01739 13.2263 10.9749 15.2756 13.4935 15.2882Z" fill="white"/>
</svg>
